<svg width="28" height="32" viewBox="0 0 28 32" fill="none" xmlns="http://www.w3.org/2000/svg">
<path d="M13.5137 31.4033C11.4281 31.3856 9.19227 31.3326 6.97411 30.9791C5.5513 30.7582 4.155 30.4489 2.9001 29.7065C1.73357 29.0172 0.991241 28.0451 1.00008 26.64C1.00008 25.9418 1.0531 25.2349 1.18566 24.5455C1.89265 20.9222 4.07546 18.4301 7.30992 16.7952C7.91086 16.4859 8.56482 16.265 9.20111 16.0264C9.30716 15.9822 9.47507 15.9999 9.58111 16.0529C12.4179 17.4757 15.2547 17.4757 18.1003 16.0617C18.2063 16.0087 18.3477 15.9822 18.4538 16.0087C21.591 16.972 24.0566 18.7924 25.5855 21.7618C26.3632 23.2641 26.699 24.8814 26.699 26.5693C26.699 27.9656 25.9213 28.8847 24.7725 29.5563C23.5706 30.2544 22.245 30.6079 20.8929 30.8554C18.5068 31.3061 16.0854 31.4033 13.5137 31.4033Z" stroke="#8B8B8B" stroke-miterlimit="10"/>
<path d="M13.8495 15.2663C10.403 15.3105 7.38945 12.9597 6.65595 9.66341C5.84292 6.00476 8.05225 2.29308 11.7021 1.32098C14.8393 0.490272 17.57 1.25912 19.6733 3.77775C21.9799 6.535 21.6529 10.7769 19.0105 13.2425C17.5877 14.577 15.8821 15.2398 13.8495 15.2663Z" stroke="#8B8B8B" stroke-miterlimit="10"/>
</svg>
