<svg viewBox="0 0 384 512" xmlns="http://www.w3.org/2000/svg"><path d="M351.2 436.2c3.984 17.22-6.75 34.41-23.97 38.41a211.614 211.614 0 0 1-47.59 5.438c-56.84 0-111.7-23.22-152.8-66.19C104.9 391 88.89 364.4 78.49 336H48c-17.67 0-32-14.31-32-32s14.33-32 32-32h16.94a234.85 234.85 0 0 1 0-32H48c-17.67 0-32-14.3-32-31.99S30.33 176 48 176h30.49c10.41-28.4 26.4-55.06 48.31-77.91 52.58-54.88 127.5-77.5 200.4-60.72 17.22 4 27.95 21.19 23.97 38.41-3.969 17.22-21.12 27.97-38.38 23.97C262.1 88.09 209.8 104 173 142.4c-9.8 10.2-17.4 21.7-24 33.6h123c17.67 0 31.1 14.32 31.1 32.01S289.7 240 272 240H129.4a167.867 167.867 0 0 0 0 32H272c17.67 0 31.1 14.31 31.1 31.1S289.7 336 272 336H149c6.588 11.93 14.17 23.41 23.94 33.59 36.83 38.44 89.03 54.34 139.8 42.66 16.36-4.05 34.46 6.75 38.46 23.95z" fill="#ffffff" class="fill-000000"></path></svg>