<svg viewBox="0 0 24 24" xmlns="http://www.w3.org/2000/svg"><path d="M23 3H1a1 1 0 0 0-1 1v16a1 1 0 0 0 1 1h22a1 1 0 0 0 1-1V4a1 1 0 0 0-1-1Zm-1 16H2V5h20Z" fill="#006a28" class="fill-000000"></path><path d="M7.5 14H5a1 1 0 0 0 0 2h1a1 1 0 1 0 2 0 2.5 2.5 0 0 0-.5-5h-1a.5.5 0 0 1 0-1H9a1 1 0 0 0 0-2H8a1 1 0 1 0-2 .05A2.5 2.5 0 0 0 6.5 13h1a.5.5 0 0 1 0 1ZM13 9h6a1 1 0 0 0 0-2h-6a1 1 0 0 0 0 2ZM13 13h6a1 1 0 0 0 0-2h-6a1 1 0 0 0 0 2ZM13 17h6a1 1 0 0 0 0-2h-6a1 1 0 0 0 0 2Z" fill="#006a28" class="fill-000000"></path></svg>