<svg viewBox="0 0 24 24" xmlns="http://www.w3.org/2000/svg"><g data-name="donut chart cut"><path d="M19 13h-5a1 1 0 0 0-1 1 3 3 0 1 1-3-3 1 1 0 0 0 1-1V5a1 1 0 0 0-1-1 10 10 0 1 0 7.07 17.07A9.9 9.9 0 0 0 20 14a1 1 0 0 0-1-1ZM2 14a8 8 0 0 1 7-7.94v3a5 5 0 1 0 3.76 9.07l2.14 2.14A8 8 0 0 1 2 14Zm14.3 4.89-2.14-2.14A5 5 0 0 0 14.9 15h3a7.85 7.85 0 0 1-1.6 3.89Z" fill="#006a28" class="fill-000000"></path><path d="M13 0a1 1 0 0 0-1 1v6a1 1 0 0 0 1 1 3 3 0 0 1 3 3 1 1 0 0 0 1 1h6a1 1 0 0 0 1-1A11 11 0 0 0 13 0Zm4.9 10A5 5 0 0 0 14 6.1v-4a9 9 0 0 1 7.94 7.9Z" fill="#006a28" class="fill-000000"></path></g></svg>