<svg viewBox="0 0 24 24" xmlns="http://www.w3.org/2000/svg"><g data-name="human resource"><path d="M19.36 2.63C13.62-3.07 4 1.06 4 9.35c0 .57.23 0-1.53 3.48A1.5 1.5 0 0 0 3.81 15c.27 0 .19-.43.19 3a3.05 3.05 0 0 0 3 3h1v2a1 1 0 0 0 2 0v-3a1.07 1.07 0 0 0-1-1H7a1 1 0 0 1-1-1v-4a1.07 1.07 0 0 0-1-1h-.38C6 10.17 6 10.32 6 10 6-1 20 0 20 9a9.9 9.9 0 0 1-2.7 6.83c-.43.43-.3.45-.3 7.17a1 1 0 0 0 2 0v-6.06c3.47-3.94 4.36-10.29.36-14.31Z" fill="#006a28" class="fill-000000"></path><path d="M16.84 9.06a3.65 3.65 0 0 0 0-2.12 1 1 0 1 0-1-1.74A4 4 0 0 0 14 4.14a1 1 0 1 0-2 0 4 4 0 0 0-1.85 1.06 1 1 0 1 0-1 1.74 3.65 3.65 0 0 0 0 2.12 1 1 0 1 0 1 1.74A4 4 0 0 0 12 11.86a1 1 0 1 0 2 0 4 4 0 0 0 1.85-1.06 1 1 0 1 0 .99-1.74ZM13 10a2 2 0 1 1 2-2 2 2 0 0 1-2 2Z" fill="#006a28" class="fill-000000"></path></g></svg>