<svg viewBox="0 0 24 24" xmlns="http://www.w3.org/2000/svg"><g data-name="QR Code"><path d="M10 1H2a1 1 0 0 0-1 1v8a1 1 0 0 0 1 1h8a1 1 0 0 0 1-1V2a1 1 0 0 0-1-1ZM9 9H3V3h6Z" fill="#006a28" class="fill-000000"></path><rect height="4" rx="1" width="4" x="4" y="4" fill="#006a28" class="fill-000000"></rect><path d="M18 5v1h-1a1 1 0 0 0 0 2h2a1 1 0 0 0 1-1V5a1 1 0 0 0-2 0Z" fill="#006a28" class="fill-000000"></path><rect height="4" rx="1" width="4" x="16" y="16" fill="#006a28" class="fill-000000"></rect><path d="M5 20h2a1 1 0 0 0 0-2H6v-1a1 1 0 0 0-2 0v2a1 1 0 0 0 1 1ZM22 1h-8a1 1 0 0 0-1 1v8a1 1 0 0 0 1 1h8a1 1 0 0 0 1-1V2a1 1 0 0 0-1-1Zm-7 2h6v6h-6ZM22 13h-8a1 1 0 0 0-1 1v8a1 1 0 0 0 1 1h8a1 1 0 0 0 1-1v-8a1 1 0 0 0-1-1Zm-7 2h6v6h-6Z" fill="#006a28" class="fill-000000"></path><path d="M10 13H2a1 1 0 0 0-1 1v8a1 1 0 0 0 1 1h8a1 1 0 0 0 1-1v-8a1 1 0 0 0-1-1Zm-1 8H3v-6h6Z" fill="#006a28" class="fill-000000"></path></g></svg>