<svg width="24" height="28" viewBox="0 0 24 28" fill="none" xmlns="http://www.w3.org/2000/svg">
<path d="M17.1395 27.0102C16.8295 26.9732 16.5095 26.9455 16.1995 26.89C15.0495 26.696 14.0095 26.2617 12.9995 25.7258C9.89947 24.0627 7.43947 21.7713 5.42947 19.0456C3.99947 17.1052 2.82947 15.0356 2.03947 12.7996C1.56947 11.469 1.22947 10.1108 1.07947 8.71562C0.979472 7.75469 0.939472 6.803 1.16947 5.85132C1.55947 4.2621 2.49947 3.02398 3.89947 2.06305C4.52947 1.62879 5.19947 1.28692 5.95947 1.10213C6.43947 0.982012 6.90947 0.954293 7.38947 1.09289C7.99947 1.26844 8.40947 1.65651 8.67947 2.17393C9.08947 2.94082 9.37948 3.74467 9.61948 4.55776C9.80948 5.21378 9.97948 5.87904 10.1195 6.54429C10.1795 6.81224 10.1595 7.10791 10.1195 7.3851C10.0495 7.84709 9.74947 8.18895 9.33947 8.44767C8.86947 8.74333 8.34948 8.94661 7.82947 9.14064C7.39947 9.30695 6.95947 9.47327 6.52947 9.63958C6.16947 9.77818 6.03947 10.0554 6.15947 10.3972C7.10947 13.0028 8.51948 15.3774 10.2895 17.5765C11.2295 18.7314 12.2595 19.8125 13.3995 20.8011C13.7595 21.1153 14.1195 21.0875 14.4295 20.7272C14.9295 20.1543 15.4495 19.5999 16.1095 19.1749C16.5295 18.8977 16.9895 18.6945 17.5195 18.6667C17.8695 18.6483 18.2095 18.7129 18.5095 18.8885C19.9695 19.7201 21.3195 20.681 22.4495 21.8914C22.6595 22.1224 22.8495 22.3811 22.9995 22.649C23.3295 23.2219 23.2995 23.804 22.9595 24.3769C22.5995 24.9867 22.0695 25.4487 21.4695 25.846C20.4495 26.5112 19.3195 26.89 18.0695 26.9917C18.0295 26.9917 17.9895 27.0102 17.9395 27.0102C17.6895 27.0102 17.4095 27.0102 17.1395 27.0102Z" stroke="#8B8B8B" stroke-miterlimit="10"/>
</svg>
