<svg width="28" height="32" fill="none" xmlns="http://www.w3.org/2000/svg"><path d="M13.514 31.403c-2.086-.017-4.322-.07-6.54-.424-1.423-.22-2.819-.53-4.074-1.273-1.166-.689-1.909-1.66-1.9-3.066 0-.698.053-1.405.186-2.095.707-3.623 2.89-6.115 6.124-7.75.6-.31 1.255-.53 1.891-.769a.517.517 0 01.38.027c2.837 1.423 5.674 1.423 8.52.009a.55.55 0 01.353-.053c3.137.963 5.603 2.783 7.131 5.753.778 1.502 1.114 3.12 1.114 4.807 0 1.397-.778 2.316-1.927 2.987-1.201.698-2.527 1.052-3.88 1.3-2.385.45-4.807.547-7.378.547zm.336-16.137c-3.447.044-6.46-2.306-7.194-5.603-.813-3.658 1.396-7.37 5.046-8.342 3.137-.83 5.868-.062 7.971 2.457 2.307 2.757 1.98 6.999-.662 9.464-1.423 1.335-3.129 1.998-5.161 2.024z" stroke="#8B8B8B" stroke-miterlimit="10"/></svg>