<svg viewBox="0 0 24 24" xmlns="http://www.w3.org/2000/svg"><path d="M12.5 13h-1a1 1 0 000 2h1a1 1 0 000-2zm0-4h-1a1 1 0 000 2h1a1 1 0 000-2zm0-4h-1a1 1 0 000 2h1a1 1 0 000-2zm-4 8h-1a1 1 0 000 2h1a1 1 0 000-2zm0-4h-1a1 1 0 000 2h1a1 1 0 000-2zm0-4h-1a1 1 0 000 2h1a1 1 0 000-2zm8 8h-1a1 1 0 000 2h1a1 1 0 000-2zm0-4h-1a1 1 0 000 2h1a1 1 0 000-2zm0-4h-1a1 1 0 000 2h1a1 1 0 000-2z" fill="#006a28" class="fill-000000"/><path d="M22 21h-1V2a1 1 0 00-1-1H4a1 1 0 00-1 1v19H2a1 1 0 000 2h20a1 1 0 000-2zm-12 0v-2h4v2zm6 0v-3a1 1 0 00-1-1H9a1 1 0 00-1 1v3H5V3h14v18z" fill="#006a28" class="fill-000000"/></svg>