<svg viewBox="0 0 24 24" xmlns="http://www.w3.org/2000/svg"><path d="M20.44 7H21a1 1 0 000-2h-2.59C16.3 5 16.89 3 13 3V2a1 1 0 00-2 0v1C7.38 3 7.57 5 5.66 5H3a1 1 0 000 2h.56C.65 14.76 1 13.42 1 15a4 4 0 008 0c0-1.58.36-.22-2.59-8.08 2.28-.4 2.3-1.92 4-1.92H11v16H8a1 1 0 000 2h8a1 1 0 000-2h-3V5h.59c1.81 0 1.67 1.48 4 1.92C14.61 14.85 15 13.42 15 15a4 4 0 008 0c0-1.58.36-.23-2.56-8zM5 17a2 2 0 01-2-2h4a2 2 0 01-2 2zm-1.56-4L5 8.85 6.56 13zM19 8.85L20.56 13h-3.12zM19 17a2 2 0 01-2-2h4a2 2 0 01-2 2z" fill="#006a28" class="fill-000000"/></svg>