<svg viewBox="0 0 24 24" xmlns="http://www.w3.org/2000/svg"><g data-name="briefcase minimalis"><path d="M20 5h-3V4a3 3 0 00-3-3h-4a3 3 0 00-3 3v1H4a3 3 0 00-3 3v12a3 3 0 003 3h16a3 3 0 003-3V8a3 3 0 00-3-3zM9 4a1 1 0 011-1h4a1 1 0 011 1v1H9zM3 8a1 1 0 011-1h16a1 1 0 011 1v2a3 3 0 01-3 3H6a3 3 0 01-3-3zm17 13H4a1 1 0 01-1-1v-6a4.92 4.92 0 003 1c13 0 13.21.33 15-1v6a1 1 0 01-1 1z" fill="#006a28" class="fill-000000"/><path d="M11 12h2a1 1 0 000-2h-2a1 1 0 000 2z" fill="#006a28" class="fill-000000"/></g></svg>