<svg viewBox="0 0 24 24" xmlns="http://www.w3.org/2000/svg"><g data-name="human resource"><path d="M19.36 2.63C13.62-3.07 4 1.06 4 9.35c0 .57.23 0-1.53 3.48A1.5 1.5 0 003.81 15c.27 0 .19-.43.19 3a3.05 3.05 0 003 3h1v2a1 1 0 002 0v-3a1.07 1.07 0 00-1-1H7a1 1 0 01-1-1v-4a1.07 1.07 0 00-1-1h-.38C6 10.17 6 10.32 6 10 6-1 20 0 20 9a9.9 9.9 0 01-2.7 6.83c-.43.43-.3.45-.3 7.17a1 1 0 002 0v-6.06c3.47-3.94 4.36-10.29.36-14.31z" fill="#006a28" class="fill-000000"/><path d="M16.84 9.06a3.65 3.65 0 000-2.12 1 1 0 10-1-1.74A4 4 0 0014 4.14a1 1 0 10-2 0 4 4 0 00-1.85 1.06 1 1 0 10-1 1.74 3.65 3.65 0 000 2.12 1 1 0 101 1.74A4 4 0 0012 11.86a1 1 0 102 0 4 4 0 001.85-1.06 1 1 0 10.99-1.74zM13 10a2 2 0 112-2 2 2 0 01-2 2z" fill="#006a28" class="fill-000000"/></g></svg>