<svg viewBox="0 0 24 24" xmlns="http://www.w3.org/2000/svg"><path d="M21.69 18.61a4.23 4.23 0 00-.41-.33 2.75 2.75 0 10-4.56 0 3.78 3.78 0 00-1.52 3c0 1.41 2.07 1.7 3.8 1.7s3.8-.29 3.8-1.7a3.78 3.78 0 00-1.11-2.67zm-3.44-1.86a.75.75 0 011.5 0 .75.75 0 01-1.5 0zm-1 4.08a1.81 1.81 0 013.48 0 8.68 8.68 0 01-3.47 0zM8.2 8.3c0 1.41 2.07 1.7 3.8 1.7s3.8-.29 3.8-1.7a3.73 3.73 0 00-1.52-3 2.75 2.75 0 10-4.56 0 3.78 3.78 0 00-1.52 3zm2.06-.47a1.81 1.81 0 013.48 0 8.68 8.68 0 01-3.48 0zm1-4.08a.75.75 0 011.5 0 .75.75 0 01-1.51 0zM7.28 18.28a2.75 2.75 0 10-4.56 0 3.78 3.78 0 00-1.52 3C1.2 22.71 3.27 23 5 23s3.8-.29 3.8-1.7a3.73 3.73 0 00-1.52-3.02zm-3-1.53a.75.75 0 011.5 0 .75.75 0 01-1.53 0zm-1 4.08a1.81 1.81 0 013.48 0 8.68 8.68 0 01-3.5 0zM13 13.59V12a1 1 0 00-2 0v1.59l-1.71 1.7a1 1 0 001.42 1.42l1.29-1.3c1.23 1.23 1.44 1.59 2 1.59a1 1 0 00.71-1.71z" fill="#006a28" class="fill-000000"/></svg>