<svg viewBox="0 0 24 24" xmlns="http://www.w3.org/2000/svg"><g data-name="donut chart cut"><path d="M19 13h-5a1 1 0 00-1 1 3 3 0 11-3-3 1 1 0 001-1V5a1 1 0 00-1-1 10 10 0 107.07 17.07A9.9 9.9 0 0020 14a1 1 0 00-1-1zM2 14a8 8 0 017-7.94v3a5 5 0 103.76 9.07l2.14 2.14A8 8 0 012 14zm14.3 4.89l-2.14-2.14A5 5 0 0014.9 15h3a7.85 7.85 0 01-1.6 3.89z" fill="#006a28" class="fill-000000"/><path d="M13 0a1 1 0 00-1 1v6a1 1 0 001 1 3 3 0 013 3 1 1 0 001 1h6a1 1 0 001-1A11 11 0 0013 0zm4.9 10A5 5 0 0014 6.1v-4a9 9 0 017.94 7.9z" fill="#006a28" class="fill-000000"/></g></svg>