<svg width="24" height="28" fill="none" xmlns="http://www.w3.org/2000/svg"><path d="M17.14 27.01c-.31-.037-.63-.065-.94-.12-1.15-.194-2.19-.628-3.2-1.164-3.1-1.663-5.56-3.955-7.57-6.68-1.43-1.94-2.6-4.01-3.39-6.246-.47-1.331-.81-2.69-.96-4.084-.1-.961-.14-1.913.09-2.865.39-1.589 1.33-2.827 2.73-3.788.63-.434 1.3-.776 2.06-.96.48-.121.95-.149 1.43-.01.61.175 1.02.564 1.29 1.08.41.768.7 1.572.94 2.385.19.656.36 1.321.5 1.986.06.268.04.564 0 .841-.07.462-.37.804-.78 1.063-.47.295-.99.499-1.51.693-.43.166-.87.332-1.3.499-.36.138-.49.415-.37.757.95 2.606 2.36 4.98 4.13 7.18A25.839 25.839 0 0013.4 20.8c.36.314.72.287 1.03-.074.5-.573 1.02-1.127 1.68-1.552.42-.277.88-.48 1.41-.508.35-.019.69.046.99.221 1.46.832 2.81 1.793 3.94 3.003.21.231.4.49.55.758.33.573.3 1.155-.04 1.728-.36.61-.89 1.072-1.49 1.469a7.177 7.177 0 01-3.4 1.146c-.04 0-.08.018-.13.018h-.8z" stroke="#8B8B8B" stroke-miterlimit="10"/></svg>